<svg id="Capa_1" enable-background="new 0 0 512 512" height="512" viewBox="0 0 512 512" width="512" xmlns="http://www.w3.org/2000/svg"><g><path d="m197.344 133.408v-20.363c0-4.143-3.357-7.5-7.5-7.5s-7.5 3.357-7.5 7.5v20.363c0 4.143 3.357 7.5 7.5 7.5s7.5-3.357 7.5-7.5z"/><path d="m241.448 133.408v-20.363c0-4.143-3.357-7.5-7.5-7.5s-7.5 3.357-7.5 7.5v20.363c0 4.143 3.357 7.5 7.5 7.5s7.5-3.357 7.5-7.5z"/><path d="m285.553 133.408v-20.363c0-4.143-3.357-7.5-7.5-7.5s-7.5 3.357-7.5 7.5v20.363c0 4.143 3.357 7.5 7.5 7.5s7.5-3.357 7.5-7.5z"/><path d="m322.157 140.908c4.143 0 7.5-3.357 7.5-7.5v-20.363c0-4.143-3.357-7.5-7.5-7.5s-7.5 3.357-7.5 7.5v20.363c0 4.143 3.358 7.5 7.5 7.5z"/><path d="m182.344 378.592v20.364c0 4.143 3.357 7.5 7.5 7.5s7.5-3.357 7.5-7.5v-20.364c0-4.143-3.357-7.5-7.5-7.5s-7.5 3.357-7.5 7.5z"/><path d="m226.448 378.592v20.364c0 4.143 3.357 7.5 7.5 7.5s7.5-3.357 7.5-7.5v-20.364c0-4.143-3.357-7.5-7.5-7.5s-7.5 3.357-7.5 7.5z"/><path d="m270.553 378.592v20.364c0 4.143 3.357 7.5 7.5 7.5s7.5-3.357 7.5-7.5v-20.364c0-4.143-3.357-7.5-7.5-7.5s-7.5 3.357-7.5 7.5z"/><path d="m314.657 378.592v20.364c0 4.143 3.357 7.5 7.5 7.5s7.5-3.357 7.5-7.5v-20.364c0-4.143-3.357-7.5-7.5-7.5s-7.5 3.357-7.5 7.5z"/><path d="m378.592 197.344h20.364c4.143 0 7.5-3.357 7.5-7.5s-3.357-7.5-7.5-7.5h-20.364c-4.143 0-7.5 3.357-7.5 7.5s3.357 7.5 7.5 7.5z"/><path d="m378.592 241.448h20.364c4.143 0 7.5-3.357 7.5-7.5s-3.357-7.5-7.5-7.5h-20.364c-4.143 0-7.5 3.357-7.5 7.5s3.357 7.5 7.5 7.5z"/><path d="m378.592 285.553h20.364c4.143 0 7.5-3.357 7.5-7.5s-3.357-7.5-7.5-7.5h-20.364c-4.143 0-7.5 3.357-7.5 7.5s3.357 7.5 7.5 7.5z"/><path d="m378.592 329.657h20.364c4.143 0 7.5-3.357 7.5-7.5s-3.357-7.5-7.5-7.5h-20.364c-4.143 0-7.5 3.357-7.5 7.5s3.357 7.5 7.5 7.5z"/><path d="m113.045 197.344h20.363c4.143 0 7.5-3.357 7.5-7.5s-3.357-7.5-7.5-7.5h-20.363c-4.143 0-7.5 3.357-7.5 7.5s3.357 7.5 7.5 7.5z"/><path d="m113.045 241.448h20.363c4.143 0 7.5-3.357 7.5-7.5s-3.357-7.5-7.5-7.5h-20.363c-4.143 0-7.5 3.357-7.5 7.5s3.357 7.5 7.5 7.5z"/><path d="m113.045 285.553h20.363c4.143 0 7.5-3.357 7.5-7.5s-3.357-7.5-7.5-7.5h-20.363c-4.143 0-7.5 3.357-7.5 7.5s3.357 7.5 7.5 7.5z"/><path d="m113.045 329.657h20.363c4.143 0 7.5-3.357 7.5-7.5s-3.357-7.5-7.5-7.5h-20.363c-4.143 0-7.5 3.357-7.5 7.5s3.357 7.5 7.5 7.5z"/><path d="m460.927 445.769c9.237 0 16.753-7.516 16.753-16.754v-46.775c0-9.237-7.516-16.753-16.753-16.753h-29.172c-9.237 0-16.753 7.516-16.753 16.753v46.775c0 9.238 7.516 16.754 16.753 16.754zm-30.925-16.754v-46.775c0-.967.786-1.753 1.753-1.753h29.172c.967 0 1.753.786 1.753 1.753v46.775c0 .967-.786 1.754-1.753 1.754h-29.172c-.967 0-1.753-.788-1.753-1.754z"/><path d="m500.428 96.165c6.381 0 11.572-5.191 11.572-11.572v-60.596c0-13.232-10.765-23.997-23.997-23.997h-464.006c-13.232 0-23.997 10.765-23.997 23.997v464.006c0 13.232 10.765 23.997 23.997 23.997h19.261c4.143 0 7.5-3.357 7.5-7.5s-3.357-7.5-7.5-7.5h-19.261c-4.961 0-8.997-4.036-8.997-8.997v-81.547h20.18c8.59 0 15.578-6.988 15.578-15.578v-269.755c0-8.59-6.988-15.578-15.578-15.578h-20.18v-81.548c0-4.961 4.036-8.997 8.997-8.997h81.548v20.18c0 8.59 6.988 15.578 15.578 15.578h269.755c8.59 0 15.578-6.988 15.578-15.578v-20.18h81.547c4.961 0 8.997 4.036 8.997 8.997v57.168h-29.809c-6.644 0-12.049 5.405-12.049 12.049v30.8c0 6.644 5.405 12.049 12.049 12.049h29.809v351.94c0 4.961-4.036 8.997-8.997 8.997h-81.547v-20.179c0-8.59-6.988-15.578-15.578-15.578h-269.755c-8.59 0-15.578 6.988-15.578 15.578v20.179h-32.3c-4.143 0-7.5 3.357-7.5 7.5s3.357 7.5 7.5 7.5h414.758c13.232 0 23.997-10.765 23.997-23.997v-355.368c0-6.381-5.191-11.572-11.572-11.572h-30.285v-24.898zm-485.428 188.074v-20.739h20.758v20.739zm20.758 15v20.739h-20.758v-20.739zm-20.758-50.739v-20.738h20.758v20.738zm0-35.738v-20.739h20.758v20.739zm0 122.217h20.758v20.739h-20.758zm20.758-157.957h-20.758v-20.739h20.758zm-.578 214.434h-20.18v-20.738h20.758v20.16c0 .318-.26.578-.578.578zm0-270.911c.318 0 .578.26.578.578v20.16h-20.758v-20.738zm156.842-105.545h20.739v20.758h-20.739zm-15 20.758h-20.739v-20.758h20.739zm50.74-20.758h20.738v20.758h-20.738zm35.738 0h20.739v20.758h-20.739zm35.739 0h20.739v20.758h-20.739zm35.74 0h20.738v20.758h-20.738zm-214.434 20.18v-20.18h20.738v20.758h-20.16c-.318 0-.578-.26-.578-.578zm270.911 0c0 .318-.26.578-.578.578h-20.161v-20.758h20.739zm-199.434 441.063h20.739v20.757h-20.739zm-15 20.757h-20.739v-20.757h20.739zm50.74-20.757h20.738v20.757h-20.738zm35.738 0h20.739v20.757h-20.739zm35.739 0h20.739v20.757h-20.739zm35.74 0h20.738v20.757h-20.738zm-214.434.578c0-.318.26-.578.578-.578h20.16v20.757h-20.738zm250.172 20.179v-20.757h20.161c.318 0 .578.26.578.578v20.179z"/><path d="m151.058 172.042v167.917c0 11.571 9.413 20.984 20.984 20.984h167.917c11.571 0 20.984-9.413 20.984-20.984v-167.917c0-11.571-9.413-20.984-20.984-20.984h-18.232c-4.143 0-7.5 3.357-7.5 7.5s3.357 7.5 7.5 7.5h18.232c3.3 0 5.984 2.685 5.984 5.984v167.917c0 3.3-2.685 5.984-5.984 5.984h-167.917c-3.3 0-5.984-2.685-5.984-5.984v-10.302h70.112c11.092 0 20.115-9.023 20.115-20.115v-22.097c0-4.143-3.357-7.5-7.5-7.5s-7.5 3.357-7.5 7.5v22.097c0 2.82-2.295 5.115-5.115 5.115h-70.112v-117.313h70.112c2.82 0 5.115 2.294 5.115 5.114v55c0 4.143 3.357 7.5 7.5 7.5s7.5-3.357 7.5-7.5v-55c0-11.091-9.023-20.114-20.115-20.114h-70.112v-10.302c0-3.3 2.685-5.984 5.984-5.984h119.697c4.143 0 7.5-3.357 7.5-7.5s-3.357-7.5-7.5-7.5h-119.697c-11.571 0-20.984 9.413-20.984 20.984z"/><path d="m292.381 232.146v47.708c0 4.143 3.357 7.5 7.5 7.5s7.5-3.357 7.5-7.5v-47.708c0-4.143-3.357-7.5-7.5-7.5s-7.5 3.358-7.5 7.5z"/></g></svg>