<svg id="Capa_1" enable-background="new 0 0 512 512" height="512" viewBox="0 0 512 512" width="512" xmlns="http://www.w3.org/2000/svg"><g><g><path d="m415.671 220.371c17.539-30.378 13.602-67.242-7.069-93.072-32.705-4.986-66.599 10.036-84.138 40.414-.695 1.204-1.344 2.422-1.973 3.645-20.138-9.621-42.684-15.013-66.491-15.013s-46.353 5.392-66.491 15.013c-.628-1.224-1.277-2.441-1.973-3.645-17.539-30.378-51.433-45.4-84.138-40.414-20.671 25.83-24.608 62.694-7.069 93.072 4.64 8.037 10.427 14.995 17.032 20.795 1.955 1.717 2.529 4.528 1.472 6.905-8.524 19.161-13.263 40.379-13.263 62.703 0 44.23 18.597 84.114 48.395 112.267 1.21 1.143 1.912 2.721 1.912 4.385v66.114c0 10.195 8.265 18.459 18.459 18.459h30.937c10.195 0 18.459-8.264 18.459-18.459v-28.876c0-1.905 1.753-3.332 3.615-2.931 10.526 2.268 21.448 3.47 32.652 3.47s22.126-1.202 32.652-3.47c1.862-.401 3.615 1.026 3.615 2.931v28.876c0 10.195 8.265 18.459 18.459 18.459h30.937c10.195 0 18.459-8.264 18.459-18.459v-66.114c0-1.664.702-3.242 1.912-4.385 29.798-28.153 48.395-68.037 48.395-112.267 0-22.325-4.738-43.542-13.262-62.703-1.058-2.377-.484-5.188 1.472-6.905 6.605-5.8 12.393-12.758 17.033-20.795z" fill="#fea95c"/><g fill="#fe9738"><path d="m256 239.362c65.828 0 120.242-48.828 129.026-112.239-24.496 3.322-47.245 17.524-60.562 40.591-.695 1.204-1.344 2.422-1.973 3.645-20.138-9.622-42.684-15.013-66.491-15.013s-46.353 5.391-66.491 15.013c-.628-1.224-1.277-2.441-1.973-3.645-13.317-23.067-36.066-37.268-60.562-40.591 8.783 63.411 63.198 112.239 129.026 112.239z"/><g><path d="m200.397 462.713c-6.062-.975-11.57 3.651-11.57 9.792v21.036c0 10.195-8.264 18.459-18.459 18.459h30.905c10.195 0 18.459-8.264 18.459-18.459v-28.953c-6.557-.226-13.01-.859-19.335-1.875z"/><path d="m291.585 171.358c.628-1.224 1.277-2.441 1.973-3.645 1.153-1.996 2.38-3.923 3.67-5.785-13.126-3.629-26.947-5.582-41.227-5.582-5.217 0-10.369.274-15.453.779 18.115 1.801 35.312 6.72 51.037 14.233z"/><path d="m415.671 220.371c17.539-30.378 13.602-67.242-7.069-93.072-10.11-1.542-20.332-1.166-30.151.979 20 25.777 23.635 62.094 6.315 92.093-3.911 6.774-8.637 12.781-13.981 17.975-3.64 3.538-4.804 8.892-2.869 13.585 7.48 18.135 11.608 38.007 11.608 58.843 0 42.438-17.121 80.875-44.829 108.789-3.511 3.537-5.477 8.321-5.477 13.305v60.673c0 10.195-8.265 18.459-18.459 18.459h30.905c10.195 0 18.459-8.264 18.459-18.459v-66.114c0-1.664.702-3.242 1.912-4.385 29.798-28.153 48.395-68.037 48.395-112.267 0-22.325-4.738-43.542-13.262-62.703-1.058-2.377-.484-5.188 1.472-6.905 6.603-5.801 12.391-12.759 17.031-20.796z"/></g><ellipse cx="256" cy="375.382" rx="57.631" ry="40.698"/></g><g><g><path d="m308.646 282.508c-4.268 0-7.726-3.459-7.726-7.726v-14.622c0-4.268 3.459-7.726 7.726-7.726s7.726 3.459 7.726 7.726v14.622c0 4.267-3.459 7.726-7.726 7.726z" fill="#7a6d79"/></g><g><path d="m203.354 282.508c-4.268 0-7.726-3.459-7.726-7.726v-14.622c0-4.268 3.459-7.726 7.726-7.726 4.268 0 7.726 3.459 7.726 7.726v14.622c0 4.267-3.458 7.726-7.726 7.726z" fill="#7a6d79"/></g></g><g><g><circle cx="235.141" cy="375.382" fill="#7a6d79" r="8.774"/></g><g><circle cx="276.859" cy="375.382" fill="#7a6d79" r="8.774"/></g></g></g><g><ellipse cx="256" cy="109.087" fill="#fedf30" rx="109.087" ry="109.087" transform="matrix(.707 -.707 .707 .707 -2.156 212.97)"/><path d="m288.658 4.975c27.566 19.798 45.524 52.13 45.524 88.659 0 60.247-48.84 109.087-109.088 109.087-11.377 0-22.346-1.744-32.658-4.975 17.898 12.855 39.846 20.428 63.564 20.428 60.247 0 109.088-48.84 109.088-109.087-.001-48.87-32.137-90.231-76.43-104.112z" fill="#fac600"/><path d="m276.043 34.976c6.171-.05 10.285 5.611 8.218 10.948-5.492 14.182-11.573 28.185-17.502 42.191-.359.848-.102 1.202.601 1.607 11.101 6.409 22.178 12.86 33.29 19.25 5.474 3.148 6.346 9.554 1.778 13.887-20.126 19.092-40.284 38.151-60.435 57.217-3.38 3.198-6.708 3.924-10.173 2.246-3.774-1.827-5.626-6.122-4.086-10.104 2.102-5.433 4.406-10.789 6.643-16.169 3.609-8.679 7.22-17.358 10.877-26.018.373-.884.06-1.198-.62-1.589-11.239-6.464-22.59-12.797-33.689-19.497-5.167-3.119-5.777-9.48-1.373-13.653 20.139-19.081 40.336-38.101 60.435-57.224 1.854-1.763 3.888-3.022 6.036-3.092z" fill="#fea95c"/><path d="m300.649 108.973c-11.112-6.39-22.188-12.841-33.289-19.25-.702-.405-.96-.759-.601-1.607 5.929-14.006 12.009-28.01 17.502-42.191 2.067-5.337-2.048-10.998-8.218-10.948-2.148.07-4.182 1.329-6.036 3.093-7.243 6.891-14.507 13.762-21.769 20.634-.877 2.853-5.818 13.168-9.049 21.19-2.142 5.319-.012 11.4 4.95 14.273 8.532 4.94 17.058 9.891 25.605 14.806 5.474 3.148 6.346 9.554 1.778 13.887-12.826 12.167-25.672 24.313-38.514 36.463-1.796 4.284-3.599 8.566-5.275 12.896-1.54 3.981.312 8.277 4.086 10.104 3.465 1.678 6.793.952 10.173-2.246 20.15-19.066 40.309-38.125 60.435-57.217 4.568-4.333 3.697-10.739-1.778-13.887z" fill="#fe9738"/></g></g></svg>